# xmcd
#
# Track frame offsets:
#	187
#	17490
#	31292
#	45710
#	58230
#	75682
#	90292
#	106085
#	117577
#	128777
#	143847
#
# Disc length: 2180 seconds
#
# Revision: 3
# Processed by: cddbd v1.5.2PL0 Copyright (c) Steve Scherf et al.
# Submitted via: EZCDAudioConverter 6.0.4.1
#
DISCID=8808820b
DTITLE=Marty Stuart - Love And Luck
DYEAR=1992
DGENRE=Country
TTITLE0=Love And Luck
TTITLE1=Kiss Me, I'm Gone
TTITLE2=Wheels
TTITLE3=I Ain't Giving Up On Love
TTITLE4=That's What Love's About
TTITLE5=Marty Stuart Visits The Moon
TTITLE6=Oh, What A Silent Night
TTITLE7=Shake Your Hips
TTITLE8=You Can Walk All Over Me
TTITLE9=That's When You'll Know It's Over
TTITLE10=If I Give My Soul
EXTD=
EXTT0=
EXTT1=
EXTT2=
EXTT3=
EXTT4=
EXTT5=
EXTT6=
EXTT7=
EXTT8=
EXTT9=
EXTT10=
PLAYORDER=
